<?xml version="1.0" encoding="UTF-8"?>
<svg version="1.1" viewBox="0 0 2048 655" width="1280" height="1280" xmlns="http://www.w3.org/2000/svg">
<path transform="translate(260)" d="m0 0h27l19 4 19 7 17 10 13 10 15 15 10 13 12 21 8 20 5 19 3 20v10h131l5 3 3 6-1 31-18 366-1 14-3 12-7 13-9 10-10 7-10 4-9 2h-415l-12-3-11-6-7-6-8-11-5-11-3-13-6-128-10-222-2-36v-24l3-5 5-3h130l3-26 5-20 7-19 10-19 10-14 11-12 10-10 15-11 15-8 17-6zm3 36-17 4-17 8-12 9-7 6-9 11-7 10-8 16-6 16-4 21v12h195v-11l-3-17-5-16-7-16-7-11-8-10-12-12-10-7-16-8-13-4-7-1zm1 189-21 3-17 6-11 6-9 7-8 7-9 12-7 15-3 15v15l4 16 7 14 9 11 10 9 14 9 17 8 34 13 20 7 16 8 11 7 10 9 7 9 5 12 1 6v11l-3 11-5 10-6 7-10 7-12 6-14 4-15 2h-13l-19-3-21-7-16-8-14-9-10-7-4 1-9 12-4 7 1 4 9 8 15 10 21 10 22 7 25 4h29l20-4 17-6 13-8 12-10 9-12 8-16 4-17v-23l-4-15-7-13-9-10-8-8-18-12-15-8-19-8-25-9-20-8-15-8-10-8-7-8-5-10-2-8v-9l3-12 6-10 7-8 11-7 9-4 13-3h24l18 3 21 7 19 10 5 3 4-2 11-18-2-4-5-4-21-11-20-7-18-4-20-2z" fill="#ED502E"/>
<path transform="translate(1384,344)" d="m0 0h23l5 1 1 2 1 21 12-9 19-9 15-4 16-2h9l16 2 17 5 16 8 11 8 10 9 8 9 8 13 6 13 4 13 2 13v20l-3 16-5 14-6 12-10 14-12 12-13 9-16 8-12 4-19 3h-14l-19-3-19-7-14-8-8-6v127l-2 2-9 1h-16l-7-1-2-4v-303l2-2zm86 36-15 4-13 7-10 9-8 9-8 16-3 14v16l4 16 7 13 9 11 12 9 13 6 12 3h20l15-4 15-8 12-11 9-14 5-14 1-5v-20l-3-12-4-10-7-10-8-9-10-7-13-6-12-3z" fill="#ED502E"/>
<path transform="translate(754,222)" d="m0 0h25l25 4 20 6 21 9 14 9 2 2-1 7-7 11-7 9-1 1-7-1-16-9-15-6-19-5-15-2h-15l-15 3-12 5-10 7-8 8-6 12-2 9 1 13 4 10 7 9 8 7 16 9 20 8 33 11 21 9 19 10 13 9 12 11 7 8 6 10 5 14 2 16-1 17-4 16-5 12-7 11-9 10-10 9-16 9-21 7-16 3h-35l-19-3-19-5-16-6-16-8-15-10-10-8-1-5 11-18 5-6 4-1 9 5 10 7 16 9 15 6 13 4 17 3h21l16-3 16-6 11-7 8-7 6-10 4-13v-12l-4-13-7-10-5-5-8-7-14-8-16-7-44-15-24-10-11-6-12-9-10-9-9-12-6-12-4-16v-20l4-16 8-16 7-9 4-5 14-11 14-8 18-6z" fill="#ED502E"/>
<path transform="translate(915,222)" d="m0 0h31l3 2 1 141 13-8 13-6 15-4 7-1h21l16 3 16 6 12 7 10 8 11 11 7 10 8 16 4 13 2 12v116l-7 2h-25l-4-2-1-5-1-112-5-16-7-11-9-9-14-8-9-3-6-1h-17l-12 3-12 6-11 9-7 10-5 11-2 6-1 8-1 111-2 2-4 1h-26l-4-2-1-3v-318l1-4z" fill="#ED502E"/>
<path transform="translate(1704,344)" d="m0 0h26l17 4 16 7 12 8 10 9 7 7 10 15 6 13 4 12 2 10 1 10v10l-4 6-2 2-140 1-13 1 5 14 7 12 10 10 11 7 14 6 10 2 19 1 16-2 18-6 11-6 13-10 4 1 6 7 10 16-1 5-5 6-14 9-12 6-15 5-15 3-8 1h-27l-14-2-16-5-16-8-10-7-10-9-9-10-8-13-5-11-4-13-2-11v-24l3-16 6-16 9-16 12-14 12-10 15-9 17-6zm2 35-14 4-11 6-10 9-7 9-5 10-1 5 12 1h106l1-2-7-14-8-10-12-9-12-6-11-3z" fill="#ED502E"/>
<path transform="translate(1937,344)" d="m0 0h26l17 4 16 7 11 7 12 11 7 7 9 14 6 12 5 17 2 10v17l-6 7-13 1h-139l1 7 5 12 8 11 7 7 11 7 12 5 12 3 19 1 16-2 16-5 13-7 13-10 5 1 9 13 6 10-1 5-6 7-11 7-16 8-17 5-19 3h-26l-14-2-17-5-16-8-11-8-10-9-10-12-9-16-5-14-3-16v-22l3-16 6-17 8-14 8-10 6-7 14-11 17-9 17-5zm2 35-14 4-11 6-12 11-7 11-4 9 1 3h112l6-1-4-10-6-9-7-8-13-9-12-5-8-2z" fill="#ED502E"/>
<path transform="translate(1225,344)" d="m0 0h28l17 4 15 6 12 7 9 7 9 8 10 13 8 14 7 21 2 17-1 19-4 16-6 15-9 14-9 10-9 9-14 9-15 7-14 4-11 2h-23l-16-3-16-6-15-8-11-9-11-11-7-10-8-15-5-15-2-10-1-17 2-17 5-17 10-19 8-10 6-7 14-11 14-8 16-6zm3 35-15 4-13 7-10 9-8 9-7 14-3 10-1 8v11l3 14 5 12 8 11 8 8 11 7 11 5 14 3h16l16-4 15-8 12-11 6-8 6-12 3-10 1-7v-12l-3-14-5-12-7-10-5-6-12-9-13-6-12-3z" fill="#ED502E"/>
</svg>
