<?xml version="1.0" encoding="UTF-8"?>
<svg version="1.1" viewBox="0 0 2048 488" width="1280" height="1280" xmlns="http://www.w3.org/2000/svg">
<path transform="translate(63)" d="m0 0h355l15 4 16 8 13 11 10 14 7 16 2 9 1 10v334l-1 14-4 14-8 16-8 10-10 9-12 7-15 5-6 1h-356l-15-4-15-8-12-11-7-8-8-15-5-18v-353l4-15 5-12 9-13 8-8 10-7 12-6zm27 38-12 3-10 7-7 8-5 12-1 5v336l4 13 6 9 8 7 11 5 5 1h30l17-3 13-5 11-7 12-11 9-14 4-11 2-10v-12l-3-14-8-16-12-14-42-42-7-8-34-34 2-4 46-46v-2h2l7-8 38-38 9-13 5-13 2-10v-14l-4-16-7-14-9-10-8-7-14-7-14-3zm135 0 2 6 7 14 5 16 2 11 1 11v17l-2 15-5 19-7 16-9 13-15 15-7 8-22 22-7 8-11 11 2 4 19 19 7 8 28 28 10 14 8 17 5 17 2 11 1 11v14l-4 19-6 20-8 20v1l5 1h138l32-1 11-4-2-4-14-15-42-42-7-8-40-40-7-8-40-40-7-8-32-32 2-4 30-30 7-8 33-33 7-8 16-16 7-11 5-12 2-9v-18l-4-15-6-12-9-11-12-9-11-5-14-3zm133 0 2 5 7 14 5 16 3 19v23l-3 19-5 16-8 16-7 10-39 39-7 8-17 17 2 4 15 15 7 8 41 41 7 8 45 45 7 8 12 12h2v-304l-2-11-6-12-8-8-12-6-10-2z" fill="#035299"/>
<path transform="translate(1013,121)" d="m0 0h81l8 15 11 23 62 124v-162h58v240h-80l-12-24-10-19-14-28-10-19-12-24-10-19-13-26-2-3v33l1 77v52h-59v-239z" fill="#035299"/>
<path transform="translate(554,121)" d="m0 0h120l21 3 16 6 11 7 7 6 7 10 5 13 1 5v23l-3 11-6 12-10 10-14 8-5 2h-3v2l10 2 12 5 10 7 7 7 6 12 3 14v12l-3 16-5 12-8 11-9 8-16 8-16 5-22 3h-116zm65 45-1 1v49h28l15-3 10-5 6-8 2-9-2-11-7-8-10-4-5-1-19-1zm-1 93v57h27l16-2 11-4 6-4 4-5 3-10v-7l-3-10-6-7-10-5-9-2-15-1z" fill="#025199"/>
<path transform="translate(1555,121)" d="m0 0h120l16 2 16 5 12 6 10 9 6 7 6 13 2 10v19l-3 13-6 11-9 10-11 7-12 5 18 6 10 6 9 8 6 10 4 13v23l-4 15-5 10-8 10-12 9-11 5-13 4-16 3-9 1h-116zm64 45v50h28l15-3 9-5 6-7 2-5v-12l-4-8-6-5-8-3-6-1-18-1zm0 93v57h27l16-2 11-4 7-5 5-10v-15l-5-10-8-6-9-3-21-2z" fill="#025199"/>
<path transform="translate(1764,121)" d="m0 0h123l16 2 16 5 13 7 10 9 7 10 4 10 2 10v18l-4 16-6 12-9 10-13 8-12 5 8 4 7 7 7 14 16 43 16 45 1 5h-66l-4-10-13-41-8-20-6-11-3-3v-2l-4-2-9-4-6-1-19-1v94l-1 1h-63zm64 45-1 7v30l1 18h28l15-2 9-4 7-6 3-6 1-4v-12l-4-9-8-6-11-4-6-1-18-1z" fill="#035199"/>
<path transform="translate(1255,121)" d="m0 0h63l1 1 1 96 10-14 12-16 42-57 7-9 1-1h76l-2 4-13 16-10 13-13 16-10 13-13 16-10 13-13 16-3 4 2 4 28 38 16 21 13 18 13 17 14 19 8 11v1h-81l-7-9-8-12-15-22-11-16-15-22-13-19-5-7-1 107h-64z" fill="#045299"/>
<path transform="translate(833,121)" d="m0 0h78l5 12 44 114 40 104 3 10h-70l-10-28-7-20v-3h-91l-3 11-13 35-2 5h-65l1-5 20-53 16-42 22-58 17-45 14-36zm38 50-3 8-24 72-4 13 1 1h58l1-3-17-56-10-33z" fill="#035199"/>
<path transform="translate(1984,121)" d="m0 0h64v240h-64z" fill="#025199"/>
</svg>
